<?xml version="1.0" encoding="UTF-8"?>
<svg xmlns="http://www.w3.org/2000/svg" width="128" height="128" viewBox="0 0 128 128"
     role="img" aria-labelledby="t d"
     data-id="sp-filter-housing-cartridge" data-cat="sp" data-spec="128"
     data-tags="filter,housing,cartridge,pp,melt-blown" data-license="CC-BY-4.0" data-copyright="ZengZichao">
  <title id="t">滤芯外壳+PP滤芯 / Filter Housing with PP Cartridge</title>
  <desc id="d">滤芯外壳配PP熔喷滤芯剖面结构</desc>
  <g id="body"><path d="M36 20 L92 20 L92 108 Q92 116 84 116 L44 116 Q36 116 36 108 Z" fill="#E8EDF2" stroke="#1F2933" stroke-linejoin="round" stroke-width="2.5" data-ls="body" data-ls-stroke="stroke"/>
    <path d="M44 28 L84 28 L84 100 Q84 106 78 106 L50 106 Q44 106 44 100 Z" fill="#FFFFFF" stroke="#1F2933" stroke-linejoin="round" stroke-width="2.5" data-ls="fill" data-ls-stroke="stroke"/>
    <path d="M52 36 L76 36 L76 96 L52 96 Z" fill="#FFFFFF" stroke="#1F2933" stroke-linejoin="round" stroke-width="2.5" data-ls="fill" data-ls-stroke="stroke"/></g>
  <g id="detail"><path d="M56 40 L72 40 L72 92 L56 92 Z" fill="#2B7DE9" opacity="0.4" stroke="none" data-ls="accent"/>
    <path d="M48 50 L80 50 M48 60 L80 60 M48 70 L80 70 M48 80 L80 80 M48 90 L80 90" fill="none" stroke="#5A6B7B" stroke-linecap="round" stroke-width="1.75" data-ls="thin"/>
    <path d="M36 60 L28 60 L28 68 L36 68 Z" fill="#2B7DE9" opacity="0.5" stroke="none" data-ls="accent"/>
    <path d="M92 60 L100 60 L100 68 L92 68 Z" fill="#2B7DE9" opacity="0.5" stroke="none" data-ls="accent"/></g>
</svg>